<svg height="512pt" viewBox="-51 0 512 512" width="512pt" xmlns="http://www.w3.org/2000/svg"><path d="m201.335938 304.59375h16.03125v15.03125h-16.03125zm0 0"/><path d="m129.195312 352.6875h16.03125v15.03125h-16.03125zm0 0"/><path d="m217.367188 208.40625h16.03125v15.03125h-16.03125zm0 0"/><path d="m352.648438 383.75c0-6.113281-1.753907-11.820312-4.773438-16.660156 16.125-1.394532 28.820312-14.957032 28.820312-31.433594 0-16.480469-12.695312-30.039062-28.820312-31.4375 3.019531-4.835938 4.773438-10.546875 4.773438-16.65625 0-16.480469-12.695313-30.039062-28.820313-31.4375 3.019531-4.835938 4.773437-10.546875 4.773437-16.65625 0-16.480469-12.695312-30.039062-28.820312-31.4375 3.019531-4.835938 4.773438-10.296875 4.773438-16.40625 0-17.402344-14.160157-31.3125-31.5625-31.3125h-120.027344c3.535156-19.035156 20.0625-33.316406 39.871094-33.316406 14.441406 0 27.910156 7.652344 35.152343 20.167968l13.003907-7.585937c-8.652344-14.953125-23.625-25.023437-40.65625-27.34375v-97.203125h21.449218l32.0625 32.0625h64.125l37.875 37.625 10.628906-10.5-27.25-27.125h46.46875v-15.03125h-78.53125l19.234376-19.484375-10.625-10.503906-29.863282 29.988281h-25.835937l-32.0625-32.0625h-227.066407v15.03125h184.359376v97.207031c-25.046876 3.347657-44.207032 23.027344-47.558594 48.074219h-25.066406c-17.40625 0-31.5625 13.910156-31.5625 31.3125 0 6.109375 1.75 11.695312 4.769531 16.53125-16.121094 1.398438-28.816407 14.894531-28.816407 31.375 0 6.109375 1.75 11.789062 4.769532 16.625-16.121094 1.398438-28.816406 14.941406-28.816406 31.421875 0 6.109375 1.75 11.8125 4.769531 16.648437-16.121094 1.398438-28.816407 14.953126-28.816407 31.433594 0 16.480469 12.695313 30.035156 28.816407 31.433594-3.019531 4.835938-4.769531 10.542969-4.769531 16.65625 0 16.480469 12.695312 30.039062 28.816406 31.4375-3.019532 4.835938-4.769532 10.546875-4.769532 16.65625 0 16.480469 12.695313 30.039062 28.816407 31.433594-3.019531 4.839844-4.769531 10.796875-4.769531 16.910156 0 17.402344 14.15625 31.8125 31.5625 31.8125h160.3125c17.402343 0 31.558593-14.410156 31.558593-31.8125 0-6.113281-1.75-11.945312-4.769531-16.785156 16.121094-1.394532 28.820312-15.019532 28.820312-31.496094 0-6.113281-1.753906-11.851562-4.773437-16.691406 16.125-1.394532 28.820313-14.988282 28.820313-31.464844zm-264.015626 65.125c-9.117187 0-16.53125-7.414062-16.53125-16.53125 0-9.113281 7.414063-16.53125 16.53125-16.53125h64.609376v33.0625zm184.359376 48.09375h-160.3125c-9.117188 0-16.53125-7.414062-16.53125-16.53125 0-9.113281 7.414062-16.53125 16.53125-16.53125h160.3125c9.117187 0 16.53125 7.417969 16.53125 16.53125 0 9.117188-7.414063 16.53125-16.53125 16.53125zm-104.71875-48.09375v-33.0625c0-13.535156 11.011718-24.546875 24.546874-24.546875 13.535157 0 24.546876 11.011719 24.546876 24.546875v33.0625zm152.8125-48.09375h-39.59375v15.03125h15.546874c9.117188 0 16.53125 7.417969 16.53125 16.53125 0 9.117188-7.414062 16.53125-16.53125 16.53125h-64.640624v-33.0625c0-21.824219-17.746094-39.328125-39.570313-39.328125-16.3125 0-30.34375 9.269531-36.390625 24.296875h-91.851562c-9.117188 0-16.535157-7.414062-16.535157-16.53125s7.417969-16.53125 16.535157-16.53125h48.578124v-15.03125h-72.625c-9.117187 0-16.535156-7.414062-16.535156-16.53125s7.417969-16.53125 16.535156-16.53125h144.765626v-15.03125h-120.71875c-9.117188 0-16.535157-7.414062-16.535157-16.53125s7.417969-16.53125 16.535157-16.53125h72.625v-15.03125h-48.578126c-9.117187 0-16.53125-7.414062-16.53125-16.53125s7.414063-16.53125 16.53125-16.53125h112.703126v-15.03125h-88.65625c-9.117188 0-16.53125-7.414062-16.53125-16.53125s7.414062-16.53125 16.53125-16.53125h160.3125c9.117187 0 16.53125 7.414062 16.53125 16.53125s-7.414063 16.53125-16.53125 16.53125h-23.5625v15.03125h47.609374c9.117188 0 16.53125 7.414062 16.53125 16.53125s-7.414062 16.53125-16.53125 16.53125h-143.796874v15.03125h167.84375c9.117187 0 16.53125 7.414062 16.53125 16.53125s-7.414063 16.53125-16.53125 16.53125h-87.6875v15.03125h111.734374c9.117188 0 16.53125 7.414062 16.53125 16.53125s-7.414062 16.53125-16.53125 16.53125h-183.875v15.03125h159.828126c9.117187 0 16.53125 7.414062 16.53125 16.53125s-7.414063 16.53125-16.53125 16.53125zm0 0"/><path d="m249.429688 400.78125h16.03125v15.03125h-16.03125zm0 0"/><path d="m41.84375 208.710938 2.703125-2.703126 6.707031 6.710938 10.628906-10.628906-6.710937-6.707032 2.703125-2.703124c4.632812-4.632813 7.183594-10.789063 7.183594-17.339844 0-6.546875-2.550782-12.707032-7.183594-17.335938-4.628906-4.628906-10.789062-7.179687-17.335938-7.179687-6.550781 0-12.707031 2.550781-17.339843 7.179687l-2.699219 2.703125-6.710938-6.710937-10.628906 10.628906 6.710938 6.710938-2.703125 2.699218c-9.558594 9.5625-9.558594 25.117188 0 34.675782 4.632812 4.632812 10.789062 7.183593 17.339843 7.183593 6.546876 0 12.707032-2.554687 17.335938-7.183593zm-8.015625-40.078126c1.792969-1.792968 4.175781-2.777343 6.710937-2.777343 2.535157 0 4.917969.984375 6.710938 2.777343 1.789062 1.792969 2.777344 4.175782 2.777344 6.710938 0 2.53125-.988282 4.917969-2.777344 6.707031l-2.703125 2.703125-13.421875-13.417968zm-16.03125 16.03125 2.703125-2.703124 13.417969 13.421874-2.703125 2.699219c-1.789063 1.792969-4.171875 2.78125-6.707032 2.78125-2.535156 0-4.917968-.988281-6.710937-2.78125-3.699219-3.699219-3.699219-9.71875 0-13.417969zm0 0"/><path d="m402.550781 462.601562-2.703125-2.703124 6.710938-6.710938-10.628906-10.625-6.710938 6.707031-2.699219-2.699219c-4.632812-4.632812-10.789062-7.183593-17.339843-7.183593-6.546876 0-12.707032 2.550781-17.335938 7.183593-9.558594 9.558594-9.558594 25.113282 0 34.671876l2.699219 2.703124-6.707031 6.710938 10.628906 10.625 6.707031-6.710938 2.703125 2.703126c4.632812 4.632812 10.789062 7.183593 17.335938 7.183593 6.550781 0 12.707031-2.550781 17.339843-7.183593 4.628907-4.628907 7.179688-10.789063 7.179688-17.335938 0-6.550781-2.550781-12.707031-7.179688-17.335938zm-37.378906 10.714844-2.699219-2.699218c-3.699218-3.699219-3.699218-9.722657-.003906-13.421876 1.792969-1.789062 4.175781-2.777343 6.710938-2.777343 2.535156 0 4.917968.988281 6.710937 2.777343l2.699219 2.703126zm26.75 13.332032c-1.792969 1.792968-4.175781 2.777343-6.710937 2.777343-2.535157 0-4.917969-.984375-6.707032-2.777343l-2.703125-2.703126 13.417969-13.417968 2.703125 2.699218c1.789063 1.792969 2.777344 4.175782 2.777344 6.710938s-.988281 4.917969-2.777344 6.710938zm0 0"/></svg>